<svg width="128" height="128" viewBox="0 0 128 128" fill="none" xmlns="http://www.w3.org/2000/svg">
<g clip-path="url(#clip0_1450_184)">
<rect x="1" y="1" width="126" height="126.002" rx="23" fill="#EDC4F4"/>
<rect x="1" y="1" width="126" height="126.002" rx="23" fill="url(#paint0_linear_1450_184)"/>
<rect x="1" y="1" width="126" height="126.002" rx="23" stroke="#E2BEE3" stroke-width="2"/>
<mask id="mask0_1450_184" style="mask-type:alpha" maskUnits="userSpaceOnUse" x="0" y="0" width="128" height="129">
<rect width="128" height="128.002" rx="24" fill="#C4C4C4"/>
</mask>
<g mask="url(#mask0_1450_184)">
<rect y="-67.1465" width="128" height="128.002" rx="24" fill="white" fill-opacity="0.49"/>
<rect y="-67.1465" width="128" height="128.002" rx="24" fill="url(#paint1_linear_1450_184)"/>
</g>
<rect x="1" y="1" width="126" height="126.002" rx="23" stroke="#E2BEE3" stroke-width="2"/>
<path d="M64.25 64.001C64.9464 67.737 63.8311 71.1083 64.1151 74.8505C64.2421 76.5239 67.9216 84.2345 65.5998 82.5645" stroke="#001AFF" stroke-width="10" stroke-linecap="round"/>
<path d="M88.1992 64.3398C89.3132 70.4382 91.0744 77.7875 94.6403 83.0469" stroke="#001AFF" stroke-width="10" stroke-linecap="round"/>
<path d="M112.508 98.8777C91.2864 113.184 60.6364 108.411 38.0017 99.7763" stroke="#001AFF" stroke-width="10" stroke-linecap="round"/>
</g>
<defs>
<linearGradient id="paint0_linear_1450_184" x1="64" y1="0" x2="64" y2="128.002" gradientUnits="userSpaceOnUse">
<stop offset="0.692708" stop-color="white" stop-opacity="0"/>
<stop offset="1" stop-color="white"/>
</linearGradient>
<linearGradient id="paint1_linear_1450_184" x1="64" y1="-67.1465" x2="64" y2="60.8554" gradientUnits="userSpaceOnUse">
<stop offset="0.307292" stop-color="white"/>
<stop offset="1" stop-color="white" stop-opacity="0"/>
</linearGradient>
<clipPath id="clip0_1450_184">
<rect width="128" height="128.002" fill="white"/>
</clipPath>
</defs>
</svg>
